<mxfile host="Electron" modified="2025-06-10T09:35:03.660Z" agent="Mozilla/5.0 (Macintosh; Intel Mac OS X 10_15_7) AppleWebKit/537.36 (KHTML, like Gecko) draw.io/22.1.21 Chrome/120.0.6099.109 Electron/28.1.0 Safari/537.36" etag="I6yamj4UM8BgOGkyapP1" version="22.1.21" type="device">
  <diagram name="Page-1" id="KuYbwHTvLw0d2fVahPnk">
    <mxGraphModel dx="954" dy="674" grid="0" gridSize="10" guides="1" tooltips="1" connect="1" arrows="1" fold="1" page="1" pageScale="1" pageWidth="827" pageHeight="1169" math="0" shadow="0">
      <root>
        <mxCell id="0" />
        <mxCell id="1" parent="0" />
        <mxCell id="kjXMEqIANUIMd8hTFo1Z-11" style="edgeStyle=orthogonalEdgeStyle;rounded=0;orthogonalLoop=1;jettySize=auto;html=1;entryX=0;entryY=0.25;entryDx=0;entryDy=0;dashed=1;" edge="1" parent="1" source="kjXMEqIANUIMd8hTFo1Z-1">
          <mxGeometry relative="1" as="geometry">
            <mxPoint x="240" y="176" as="targetPoint" />
          </mxGeometry>
        </mxCell>
        <mxCell id="kjXMEqIANUIMd8hTFo1Z-1" value="" style="verticalLabelPosition=bottom;html=1;verticalAlign=top;align=center;strokeColor=none;fillColor=#00BEF2;shape=mxgraph.azure.github_code;pointerEvents=1;" vertex="1" parent="1">
          <mxGeometry x="80" y="151" width="50" height="50" as="geometry" />
        </mxCell>
        <mxCell id="kjXMEqIANUIMd8hTFo1Z-2" value="&lt;b&gt;git&lt;/b&gt;" style="text;html=1;strokeColor=none;fillColor=none;align=center;verticalAlign=middle;whiteSpace=wrap;rounded=0;" vertex="1" parent="1">
          <mxGeometry x="75" y="201" width="60" height="30" as="geometry" />
        </mxCell>
        <mxCell id="kjXMEqIANUIMd8hTFo1Z-3" value="&lt;p style=&quot;line-height: 0%;&quot;&gt;&lt;br&gt;&lt;/p&gt;" style="rounded=1;whiteSpace=wrap;html=1;align=left;" vertex="1" parent="1">
          <mxGeometry x="240" y="110" width="320" height="120" as="geometry" />
        </mxCell>
        <mxCell id="kjXMEqIANUIMd8hTFo1Z-4" value="&lt;span style=&quot;color: rgb(0, 0, 0); font-family: Helvetica; font-size: 12px; font-style: normal; font-variant-ligatures: normal; font-variant-caps: normal; letter-spacing: normal; orphans: 2; text-align: left; text-indent: 0px; text-transform: none; widows: 2; word-spacing: 0px; -webkit-text-stroke-width: 0px; background-color: rgb(251, 251, 251); text-decoration-thickness: initial; text-decoration-style: initial; text-decoration-color: initial; float: none; display: inline !important;&quot;&gt;&lt;b&gt;CI/CD Tool&lt;/b&gt;&lt;/span&gt;" style="text;whiteSpace=wrap;html=1;" vertex="1" parent="1">
          <mxGeometry x="250" y="80" width="90" height="20" as="geometry" />
        </mxCell>
        <mxCell id="kjXMEqIANUIMd8hTFo1Z-5" value="&lt;b&gt;Terraform&lt;/b&gt;" style="rounded=1;whiteSpace=wrap;html=1;" vertex="1" parent="1">
          <mxGeometry x="260" y="151" width="120" height="60" as="geometry" />
        </mxCell>
        <mxCell id="kjXMEqIANUIMd8hTFo1Z-6" value="&lt;b&gt;IaC&lt;/b&gt;" style="text;html=1;align=center;verticalAlign=middle;resizable=0;points=[];autosize=1;strokeColor=none;fillColor=none;" vertex="1" parent="1">
          <mxGeometry x="260" y="119" width="40" height="30" as="geometry" />
        </mxCell>
        <mxCell id="kjXMEqIANUIMd8hTFo1Z-7" value="&lt;b&gt;state&lt;/b&gt;" style="shape=cylinder3;whiteSpace=wrap;html=1;boundedLbl=1;backgroundOutline=1;size=15;" vertex="1" parent="1">
          <mxGeometry x="460" y="141" width="60" height="80" as="geometry" />
        </mxCell>
        <mxCell id="kjXMEqIANUIMd8hTFo1Z-8" style="edgeStyle=orthogonalEdgeStyle;rounded=0;orthogonalLoop=1;jettySize=auto;html=1;entryX=0;entryY=0.5;entryDx=0;entryDy=0;entryPerimeter=0;dashed=1;" edge="1" parent="1" source="kjXMEqIANUIMd8hTFo1Z-5" target="kjXMEqIANUIMd8hTFo1Z-7">
          <mxGeometry relative="1" as="geometry" />
        </mxCell>
        <mxCell id="kjXMEqIANUIMd8hTFo1Z-9" value="" style="sketch=0;points=[[0,0,0],[0.25,0,0],[0.5,0,0],[0.75,0,0],[1,0,0],[0,1,0],[0.25,1,0],[0.5,1,0],[0.75,1,0],[1,1,0],[0,0.25,0],[0,0.5,0],[0,0.75,0],[1,0.25,0],[1,0.5,0],[1,0.75,0]];outlineConnect=0;fontColor=#232F3E;fillColor=#ED7100;strokeColor=#ffffff;dashed=0;verticalLabelPosition=bottom;verticalAlign=top;align=center;html=1;fontSize=12;fontStyle=0;aspect=fixed;shape=mxgraph.aws4.resourceIcon;resIcon=mxgraph.aws4.eks;" vertex="1" parent="1">
          <mxGeometry x="646" y="131" width="78" height="78" as="geometry" />
        </mxCell>
        <mxCell id="kjXMEqIANUIMd8hTFo1Z-10" value="Amazon EKS" style="text;html=1;strokeColor=none;fillColor=none;align=center;verticalAlign=middle;whiteSpace=wrap;rounded=0;fontStyle=1" vertex="1" parent="1">
          <mxGeometry x="640" y="204" width="90" height="30" as="geometry" />
        </mxCell>
        <mxCell id="kjXMEqIANUIMd8hTFo1Z-12" style="edgeStyle=orthogonalEdgeStyle;rounded=0;orthogonalLoop=1;jettySize=auto;html=1;entryX=0;entryY=0.5;entryDx=0;entryDy=0;entryPerimeter=0;dashed=1;" edge="1" parent="1" source="kjXMEqIANUIMd8hTFo1Z-3" target="kjXMEqIANUIMd8hTFo1Z-9">
          <mxGeometry relative="1" as="geometry" />
        </mxCell>
      </root>
    </mxGraphModel>
  </diagram>
</mxfile>
